<?xml version="1.0" encoding="UTF-8" standalone="no"?>
<!-- Created with Inkscape (http://www.inkscape.org/) -->

<svg
   xmlns:dc="http://purl.org/dc/elements/1.1/"
   xmlns:cc="http://creativecommons.org/ns#"
   xmlns:rdf="http://www.w3.org/1999/02/22-rdf-syntax-ns#"
   xmlns:svg="http://www.w3.org/2000/svg"
   xmlns="http://www.w3.org/2000/svg"
   xmlns:sodipodi="http://sodipodi.sourceforge.net/DTD/sodipodi-0.dtd"
   xmlns:inkscape="http://www.inkscape.org/namespaces/inkscape"
   width="300"
   height="300"
   viewBox="0 0 79.374999 79.374999"
   version="1.1"
   id="svg8"
   inkscape:version="0.92.3 (2405546, 2018-03-11)"
   sodipodi:docname="logo.svg"
   inkscape:export-filename="logo.png"
   inkscape:export-xdpi="135"
   inkscape:export-ydpi="135">
  <defs
     id="defs2" />
  <sodipodi:namedview
     id="base"
     pagecolor="#000000"
     bordercolor="#666666"
     borderopacity="1.0"
     inkscape:pageopacity="0"
     inkscape:pageshadow="2"
     inkscape:zoom="0.7"
     inkscape:cx="240.75496"
     inkscape:cy="176.87672"
     inkscape:document-units="px"
     inkscape:current-layer="layer1"
     showgrid="false"
     units="px"
     inkscape:snap-global="false"
     inkscape:window-width="1853"
     inkscape:window-height="1025"
     inkscape:window-x="67"
     inkscape:window-y="27"
     inkscape:window-maximized="1" />
  <metadata
     id="metadata5">
    <rdf:RDF>
      <cc:Work
         rdf:about="">
        <dc:format>image/svg+xml</dc:format>
        <dc:type
           rdf:resource="http://purl.org/dc/dcmitype/StillImage" />
        <dc:title></dc:title>
      </cc:Work>
    </rdf:RDF>
  </metadata>
  <g
     inkscape:label="Layer 1"
     inkscape:groupmode="layer"
     id="layer1"
     transform="translate(0,-217.625)">
    <rect
       style="opacity:1;fill:#202020;fill-opacity:1;stroke:#ffffff;stroke-width:3.99405742;stroke-linecap:round;stroke-linejoin:round;stroke-miterlimit:4;stroke-dasharray:none;stroke-dashoffset:0;stroke-opacity:1;paint-order:normal"
       id="rect819"
       width="75.421608"
       height="75.421608"
       x="1.7877058"
       y="219.97964"
       rx="11.647442"
       ry="10.904969" />
    <g
       transform="matrix(0.49303317,0,0,0.4800073,4.7396957,115.99096)"
       id="layer1-3"
       inkscape:label="Layer 1">
      <path
         id="path826"
         transform="matrix(0.26458333,0,0,0.26458333,0,217.62498)"
         d="m 151.35547,57.015625 c -1.7965,-0.03811 -3.55988,0.0032 -5.2832,0.126953 C 69.005499,62.310629 12.148506,157.22025 93.572266,217.14258 l -0.232422,27.19336 20.779296,0.79492 -1.26172,-17.98828 9.64258,1.07226 -0.37891,16.59766 20.37891,0.37891 -0.35742,-17.33399 8.92969,-0.35742 0.5039,17.43945 19.13867,-0.29687 V 227.5 h 8.92774 l 1.42969,17.14258 19.72851,0.23047 V 216.66016 C 294.4666,135.97193 207.04689,58.197198 151.35547,57.015625 Z m 1.93555,98.279295 71.21484,0.50586 c -2.15543,19.79482 -11.36265,33.44721 -34.34375,35.10352 -18.82284,-0.0593 -34.09556,-6.77918 -36.87109,-35.60938 z m -84.095708,0.50586 72.226568,0.50586 c -2.14252,21.18335 -13.76774,35.55254 -36.36524,35.60742 -26.6969,-1.8607 -31.097036,-20.15422 -35.861328,-36.11328 z m 77.781248,25.25391 19.44532,19.69726 h -38.38477 z"
         style="fill:#de1500;fill-opacity:1;fill-rule:evenodd;stroke:none;stroke-width:0.99999994px;stroke-linecap:butt;stroke-linejoin:miter;stroke-opacity:1"
         inkscape:connector-curvature="0" />
    </g>
    <path
       sodipodi:nodetypes="scscscccccccccccccccccccsccccccccc"
       inkscape:connector-curvature="0"
       id="path828"
       d="m 56.090235,231.72872 c -6.935899,0 -12.558558,4.1119 -12.558565,9.1842 5e-6,5.0723 5.622665,9.1842 12.558565,9.1842 6.935903,0 12.558564,-4.1119 12.558568,-9.1842 -4e-6,-5.0723 -5.622665,-9.1842 -12.558568,-9.1842 z m -0.222514,3.21039 c 1.404548,0.003 2.757082,0.60254 3.790479,1.68058 -1.12151,-0.5751 -2.158729,-0.3893 -3.400468,-0.36315 0.854634,2.64895 -1.965947,2.74693 -0.0068,4.7275 l 0.877602,0.0203 0.02621,5.22447 c -0.426515,0.17087 -0.428707,0.73897 0.232755,0.7954 0.595962,-0.0358 0.583243,-0.61528 0.148935,-0.84867 v -5.1814 l 1.569812,-0.0101 v 3.67773 c -0.482284,0.17194 -0.384379,0.77438 0.181833,0.78651 0.63257,0.0489 0.647538,-0.67175 0.188999,-0.77635 v -3.64728 l 1.446241,-0.0203 0.03706,1.84901 c -0.193102,0.0245 -0.391732,0.0982 -0.370831,0.38609 0.04247,0.37399 0.220438,0.50195 0.447195,0.4916 -0.653808,2.78222 -2.628508,3.92425 -5.169043,3.92779 -3.099303,-2e-5 -5.611781,-2.84742 -5.611781,-6.35986 0,-3.51245 2.512478,-6.35985 5.611781,-6.35986 z m 5.500586,6.05506 0.102027,0.01 c 0.0051,0.0982 0.0081,0.19654 0.0092,0.29491 -0.0013,0.45922 -0.04648,0.91692 -0.134738,1.36511 z m -9.484202,0.0875 c -0.09727,1.32376 2.321516,1.38816 2.27248,0.0288 z"
       style="opacity:1;fill:#d3868c;fill-opacity:1;stroke:none;stroke-width:0.31589916;stroke-linecap:round;stroke-linejoin:round;stroke-miterlimit:4;stroke-dasharray:none;stroke-dashoffset:0;stroke-opacity:1;paint-order:normal" />
    <g
       transform="matrix(0.04559755,0,0,0.0473688,12.653461,264.23421)"
       style="fill:#00ce00;fill-opacity:1"
       id="g6">
	<path
   inkscape:connector-curvature="0"
   style="fill:#00ce00;fill-opacity:1"
   id="path2"
   d="m 483.932,47.29 c -26.72,21.71 -55.73,42.46 -89.55,51.16 -20.05,5.17 -41.561,4.15 -61.05,-2.83 -32.49,-11.5 -59.341,-34.58 -91.771,-46.22 -19.03,-7.16 -39.91,-9.12 -59.95,-5.83 -29.68,4.86 -56.739,19.26 -81.62,35.58 -0.1,86.75 -0.039,173.51 -0.029,260.27 25.46,-16.641 53.189,-31.38 83.63,-35.891 21.93,-3.389 44.66,0.061 64.97,8.871 27.48,11.369 51.18,30.14 78.811,41.209 19.33,7.971 41,10.641 61.529,6.311 36.04,-7.58 66.9,-29.439 94.97,-52.29 0.22,-86.771 0.1,-173.56 0.06,-260.34 z" />

	<path
   inkscape:connector-curvature="0"
   style="fill:#00ce00;fill-opacity:1"
   id="path4"
   d="M 73.5,426.784 V 73.216 c 9.064,-6.325 15,-16.824 15,-28.716 0,-19.33 -15.67,-35 -35,-35 -19.33,0 -35,15.67 -35,35 0,11.892 5.936,22.391 15,28.716 v 353.568 c -9.064,6.325 -15,16.824 -15,28.716 0,19.33 15.67,35 35,35 19.33,0 35,-15.67 35,-35 0,-11.892 -5.935,-22.391 -15,-28.716 z" />

</g>
    <g
       style="fill:#f2de00;fill-opacity:1;stroke:#00e200;stroke-opacity:1"
       id="setting"
       transform="matrix(0.1238683,0,0,0.1238683,39.990838,259.8837)">
      <animateTransform
         repeatCount="indefinite"
         dur="8s"
         to="360 128 128"
         from="0 128 128"
         type="rotate"
         attributeType="XML"
         attributeName="transform" />
      <path
         d="m 121.21875,37.84375 -3.4375,9.5 -1.75,9.59375 c -4.56422,0.763494 -8.98805,1.921834 -13.21875,3.5 l -6.28125,-7.375 -7.75,-6.53125 -11.71875,6.78125 1.78125,9.9375 3.21875,9.15625 c -3.522603,2.912618 -6.743632,6.133647 -9.65625,9.65625 L 63.25,78.84375 53.3125,77.0625 l -6.78125,11.71875 6.53125,7.75 7.375,6.28125 c -1.578166,4.2307 -2.736506,8.65453 -3.5,13.21875 l -9.59375,1.75 -9.5,3.4375 v 13.5625 l 9.5,3.4375 9.59375,1.75 c 0.763494,4.56422 1.921834,8.98805 3.5,13.21875 l -7.375,6.28125 -6.53125,7.75 6.78125,11.71875 9.9375,-1.78125 9.15625,-3.21875 c 2.912618,3.5226 6.133647,6.74363 9.65625,9.65625 l -3.21875,9.15625 -1.78125,9.9375 11.71875,6.78125 7.75,-6.53125 6.28125,-7.375 c 4.2307,1.57817 8.65453,2.73651 13.21875,3.5 l 1.75,9.59375 3.4375,9.5 h 13.5625 l 3.4375,-9.5 1.75,-9.59375 c 4.56422,-0.76349 8.98805,-1.92183 13.21875,-3.5 l 6.28125,7.375 7.75,6.53125 11.71875,-6.78125 -1.78125,-9.9375 -3.21875,-9.15625 c 3.5226,-2.91262 6.74363,-6.13365 9.65625,-9.65625 l 9.15625,3.21875 9.9375,1.78125 6.78125,-11.71875 -6.53125,-7.75 -7.375,-6.28125 c 1.57817,-4.2307 2.73651,-8.65453 3.5,-13.21875 l 9.59375,-1.75 9.5,-3.4375 v -13.5625 l -9.5,-3.4375 -9.59375,-1.75 c -0.76349,-4.56422 -1.92183,-8.98805 -3.5,-13.21875 l 7.375,-6.28125 6.53125,-7.75 -6.78125,-11.71875 -9.9375,1.78125 -9.15625,3.21875 c -2.91262,-3.522603 -6.13365,-6.743632 -9.65625,-9.65625 l 3.21875,-9.15625 1.78125,-9.9375 -11.71875,-6.78125 -7.75,6.53125 -6.28125,7.375 c -4.2307,-1.578166 -8.65453,-2.736506 -13.21875,-3.5 l -1.75,-9.59375 -3.4375,-9.5 z M 128,107.125 c 11.52306,0 20.875,9.35194 20.875,20.875 0,11.52306 -9.35194,20.875 -20.875,20.875 -11.52306,0 -20.875,-9.35194 -20.875,-20.875 0,-11.52306 9.35194,-20.875 20.875,-20.875 z"
         style="opacity:1;fill:#f2de00;fill-opacity:1;stroke:#00e200;stroke-opacity:1"
         id="mainsymbolpath"
         inkscape:connector-curvature="0" />
    </g>
  </g>
</svg>
